<svg class="bugs-color" xmlns="http://www.w3.org/2000/svg" xmlns:xlink="http://www.w3.org/1999/xlink" style="isolation:isolate" viewBox="0 0 150 150" width="90pt" height="90pt" aria-labelledby="title-bugs" role="img">
    <use xlink:href="#bugs-color"></use>
<defs><clipPath id="_clipPath_bsvmozWauVHdJ2LgWfh8N05ZNXZ94IGV"><rect width="150" height="150"/></clipPath></defs><g clip-path="url(#_clipPath_bsvmozWauVHdJ2LgWfh8N05ZNXZ94IGV)"><circle vector-effect="non-scaling-stroke" cx="75" cy="75.00000000000003" r="40" fill="rgb(34,34,34)"/><g><ellipse vector-effect="non-scaling-stroke" cx="75" cy="30" rx="15" ry="10" fill="rgb(34,34,34)"/><path d=" M 63.959 28.882 C 62.496 27.907 62.733 26.164 64.49 24.993 C 66.246 23.822 68.86 23.664 70.323 24.64 C 71.787 25.615 71.549 27.358 69.793 28.529 C 68.037 29.699 65.423 29.858 63.959 28.882 Z " fill="rgb(235,235,235)"/><path d=" M 79.677 24.64 C 81.14 23.664 83.754 23.822 85.51 24.993 C 87.267 26.164 87.504 27.907 86.041 28.882 C 84.577 29.858 81.963 29.699 80.207 28.529 C 78.451 27.358 78.213 25.615 79.677 24.64 Z " fill="rgb(235,235,235)"/><path d=" M 78.667 22 Q 76.906 17.898 80.167 16 Q 83.429 14.102 87.667 11" fill="none" vector-effect="non-scaling-stroke" stroke-width="1" stroke="rgb(34,34,34)" stroke-linejoin="miter" stroke-linecap="square" stroke-miterlimit="3"/><path d=" M 72 22 Q 73.761 17.898 70.5 16 Q 67.239 14.102 63 11" fill="none" vector-effect="non-scaling-stroke" stroke-width="1" stroke="rgb(34,34,34)" stroke-linejoin="miter" stroke-linecap="square" stroke-miterlimit="3"/></g><g><path d=" M 74 35 C 51.923 35 34 52.923 34 75 C 34 97.077 51.833 109.5 59 112 C 66.167 114.5 74 90.064 74 83 Q 74 82.336 74 35 Z " fill="rgb(223,60,68)"/><circle vector-effect="non-scaling-stroke" cx="61" cy="50.00000000000001" r="5.9999999999999964" fill="rgb(34,34,34)"/><circle vector-effect="non-scaling-stroke" cx="49.00000000000001" cy="74" r="6" fill="rgb(34,34,34)"/><circle vector-effect="non-scaling-stroke" cx="61" cy="96" r="5.9999999999999964" fill="rgb(34,34,34)"/></g><g><path d=" M 76 35 C 98.077 35 116 52.923 116 75 C 116 97.077 98.167 109.5 91 112 C 83.833 114.5 76 90.064 76 83 Q 76 82.336 76 35 Z " fill="rgb(223,60,68)"/><circle vector-effect="non-scaling-stroke" cx="89" cy="50.00000000000001" r="6" fill="rgb(34,34,34)"/><circle vector-effect="non-scaling-stroke" cx="101" cy="74" r="6" fill="rgb(34,34,34)"/><circle vector-effect="non-scaling-stroke" cx="89" cy="96" r="6" fill="rgb(34,34,34)"/></g></g>
</svg>
