<svg class="junk-color" xmlns="http://www.w3.org/2000/svg" xmlns:xlink="http://www.w3.org/1999/xlink" style="isolation:isolate" viewBox="0 0 150 150" width="90pt" height="90pt" aria-labelledby="title-junk" role="img">
    <use xlink:href="#junk-color"></use>
<defs><clipPath id="_clipPath_Ay5yQiXBNJvf5ioJV4HuMeys5tcjlzY1"><rect width="150" height="150"/></clipPath></defs><g clip-path="url(#_clipPath_Ay5yQiXBNJvf5ioJV4HuMeys5tcjlzY1)"><g><path d="M 58.485 6.25 L 90.515 6.25 C 92.439 6.25 94 7.811 94 9.735 L 94 16.265 C 94 18.189 92.439 19.75 90.515 19.75 L 58.485 19.75 C 56.561 19.75 55 18.189 55 16.265 L 55 9.735 C 55 7.811 56.561 6.25 58.485 6.25 Z" style="fill:none;stroke:#000000;stroke-width:8;stroke-linecap:square;stroke-miterlimit:2;"/><path d="M 16.499 13 L 132.501 13 C 136.088 13 139 15.912 139 19.499 L 139 21.501 C 139 25.088 136.088 28 132.501 28 L 16.499 28 C 12.912 28 10 25.088 10 21.501 L 10 19.499 C 10 15.912 12.912 13 16.499 13 Z" style="stroke:none;fill:#EBEBEB;stroke-miterlimit:10;"/></g><g><path d=" M 136.5 105.32 L 136.5 105.32 L 136.5 116.48 L 136.5 122.68 C 136.5 134.999 126.499 145 114.18 145 L 34.32 145 C 22.001 145 12 134.999 12 122.68 L 12 116.48 L 12 116.48 L 12 105.32 L 12 35.52 C 12 33.577 13.577 32 15.52 32 L 132.98 32 C 134.923 32 136.5 33.577 136.5 35.52 L 136.5 105.32 Z " fill-rule="evenodd" fill="rgb(235,235,235)"/><g><path d="M 42.74 50.545 L 43.348 50.514 C 45.194 50.421 46.777 51.842 46.882 53.686 L 50.415 115.977 C 50.519 117.82 49.106 119.392 47.26 119.485 L 46.652 119.516 C 44.806 119.609 43.223 118.188 43.118 116.344 L 39.585 54.053 C 39.481 52.21 40.894 50.638 42.74 50.545 Z" style="stroke:none;fill:#C3C3C3;stroke-miterlimit:10;"/><path d="M 74.027 50.02 L 74.593 50.02 C 76.451 50.02 77.96 51.529 77.96 53.387 L 77.96 116.633 C 77.96 118.491 76.451 120 74.593 120 L 74.027 120 C 72.169 120 70.66 118.491 70.66 116.633 L 70.66 53.387 C 70.66 51.529 72.169 50.02 74.027 50.02 Z" style="stroke:none;fill:#C3C3C3;stroke-miterlimit:10;"/><path d="M 105.653 51.034 L 106.265 51.065 C 108.118 51.159 109.529 52.738 109.413 54.588 L 105.543 116.813 C 105.428 118.663 103.83 120.089 101.977 119.996 L 101.365 119.965 C 99.512 119.871 98.101 118.292 98.217 116.442 L 102.087 54.217 C 102.202 52.367 103.8 50.941 105.653 51.034 Z" style="stroke:none;fill:#C3C3C3;stroke-miterlimit:10;"/></g></g><path d=" M 14.819 31.155 C 14.359 26.421 21.037 21.893 29.723 21.049 C 38.408 20.204 45.833 23.362 46.294 28.095 C 46.754 32.829 40.076 37.357 31.39 38.201 C 22.705 39.046 15.279 35.888 14.819 31.155 Z " fill="rgb(38,213,41)"/><path d=" M 102.293 23.919 C 103.268 19.739 111.703 18.13 121.118 20.327 C 130.532 22.524 137.383 27.701 136.408 31.881 C 135.432 36.06 126.997 37.67 117.583 35.472 C 108.169 33.275 101.317 28.098 102.293 23.919 Z " fill="rgb(38,213,41)"/><polygon points="111.397,27.004,102.819,36.664,76.569,38.664,58.897,31.004,67.476,21.344,93.726,19.344" fill="rgb(12,123,14)"/><polygon points="63.186,35.318,51.166,43.046,38.311,36.732,37.476,22.69,49.496,14.962,62.351,21.276" fill="rgb(150,238,140)"/><ellipse vector-effect="non-scaling-stroke" cx="63.18639523686336" cy="29.004036943740324" rx="10.251998185324322" ry="9.11634630790501" fill="rgb(66,195,57)"/></g></svg>
