<svg class="positive-gray" xmlns="http://www.w3.org/2000/svg" xmlns:xlink="http://www.w3.org/1999/xlink" style="isolation:isolate" viewBox="0 0 150 150" width="90pt" height="90pt" aria-labelledby="title-positive" role="img">
    <use xlink:href="#positive-gray"></use>
    <defs><clipPath id="_clipPath_5Ah5QP3NLfw8K6ul8GwBvsgtYXw6AcmQ"><rect width="150" height="150"/></clipPath></defs>
    <g clip-path="url(#_clipPath_5Ah5QP3NLfw8K6ul8GwBvsgtYXw6AcmQ)"><clipPath id="_clipPath_q8Ol2eZb5Hz4KMtkKBg0Ta2oklcZyRiS"><rect x="0" y="0" width="150" height="150" transform="matrix(1,0,0,1,0,0)" fill="rgb(255,255,255)"/></clipPath><g clip-path="url(#_clipPath_q8Ol2eZb5Hz4KMtkKBg0Ta2oklcZyRiS)"><g><g><path d=" M 23.446 109.196 C 23.446 92.682 42.745 79.275 66.516 79.275 C 90.286 79.275 109.585 92.682 109.585 109.196 C 109.585 125.71 90.286 139.117 66.516 139.117 C 42.745 139.117 23.446 125.71 23.446 109.196 Z " fill="rgb(73,73,73)"/><path d=" M 58.031 81.736 L 62.306 66.451 Q 65.285 58.031 66.192 56.218 Q 67.098 54.404 74.352 43.653 L 81.865 36.14 L 86.788 33.29 L 87.824 34.585 L 85.492 36.658 L 82.254 40.415 L 79.145 44.041 L 77.202 48.446 L 74.741 55.311 L 72.409 64.378 L 72.409 70.078 L 72.539 73.834 L 73.187 76.684 L 73.964 79.534 L 74.482 81.865 L 58.031 81.736 L 58.031 81.736 Z " fill="rgb(73,73,73)"/><path d=" M 81.748 14.518 C 85.193 6.166 96.13 2.743 106.158 6.878 C 116.186 11.014 121.531 21.152 118.086 29.504 C 114.642 37.857 103.704 41.28 93.676 37.144 C 83.648 33.009 78.304 22.87 81.748 14.518 Z " fill="rgb(114,114,114)"/><mask id="_mask_6hx68IJuQkpdl5oLi6zWDMzLgkl7L0p4" x="-200%" y="-200%" width="400%" height="400%"><rect x="-200%" y="-200%" width="400%" height="400%" style="fill:white;"/><path d=" M 113.731 12.824 Q 109.326 16.451 100.648 19.171 L 93.782 21.114 L 90.933 22.539 L 87.435 24.611" fill="black" stroke="none"/></mask><path d=" M 113.731 12.824 Q 109.326 16.451 100.648 19.171 L 93.782 21.114 L 90.933 22.539 L 87.435 24.611" fill="none"/><path d=" M 113.731 12.824 Q 109.326 16.451 100.648 19.171 L 93.782 21.114 L 90.933 22.539 L 87.435 24.611" fill="none" mask="url(#_mask_6hx68IJuQkpdl5oLi6zWDMzLgkl7L0p4)" vector-effect="non-scaling-stroke" stroke-width="2" stroke="rgb(152,152,152)" stroke-opacity="100" stroke-linejoin="miter" stroke-linecap="square" stroke-miterlimit="3"/><mask id="_mask_zImioH913AywNyr9XB2bEGltXKK9q6vC" x="-200%" y="-200%" width="400%" height="400%"><rect x="-200%" y="-200%" width="400%" height="400%" style="fill:white;"/><path d=" M 105.311 8.938 Q 104.432 10.616 102.089 12.757 L 100.207 14.396 L 99.511 15.239 L 98.701 16.359" fill="black" stroke="none"/></mask><path d=" M 105.311 8.938 Q 104.432 10.616 102.089 12.757 L 100.207 14.396 L 99.511 15.239 L 98.701 16.359" fill="none"/><path d=" M 105.311 8.938 Q 104.432 10.616 102.089 12.757 L 100.207 14.396 L 99.511 15.239 L 98.701 16.359" fill="none" mask="url(#_mask_zImioH913AywNyr9XB2bEGltXKK9q6vC)" vector-effect="non-scaling-stroke" stroke-width="2" stroke="rgb(152,152,152)" stroke-opacity="100" stroke-linejoin="miter" stroke-linecap="square" stroke-miterlimit="3"/><path d=" M 80.829 22.539 L 81.347 25.518 L 83.808 29.275 L 87.047 33.938 L 89.637 36.399 L 94.819 38.212 L 100 39.249 L 103.497 41.451 L 106.995 40.026 L 110.622 37.176 Q 106.606 37.694 105.57 37.565 C 104.534 37.435 100 36.788 99.093 36.528 C 98.187 36.269 95.337 35.104 94.301 34.197 Q 93.264 33.29 90.544 30.829 L 88.212 28.627 L 86.528 26.425 Q 85.363 24.223 84.585 23.316 C 83.808 22.409 82.254 21.632 81.347 20.596 Q 80.44 19.56 79.275 17.876 L 80.829 22.539 L 80.829 22.539 Z " fill="rgb(154,154,154)"/><ellipse vector-effect="non-scaling-stroke" cx="36.398963730569925" cy="103.69170984455954" rx="8.678756476683937" ry="5.5051813471502555" fill="rgb(255,255,255)"/><ellipse vector-effect="non-scaling-stroke" cx="95.79015544041445" cy="103.75647668393778" rx="8.873056994818697" ry="5.44041450777199" fill="rgb(255,255,255)"/><clipPath id="_clipPath_qEN5Xlk3rv7RbFvrAvoUevs6VayRwAfk"><ellipse vector-effect="non-scaling-stroke" cx="95.79015544041445" cy="103.75647668393778" rx="8.873056994818697" ry="5.44041450777199" fill="rgb(255,255,255)"/></clipPath><g clip-path="url(#_clipPath_qEN5Xlk3rv7RbFvrAvoUevs6VayRwAfk)"><g><ellipse vector-effect="non-scaling-stroke" cx="96.19580038178346" cy="103.85441678250976" rx="3.4155985819471226" ry="2.284215847339766" fill="rgb(0,0,0)"/></g></g><ellipse vector-effect="non-scaling-stroke" cx="36.22170711753475" cy="103.59534942499681" rx="3.4155985819471226" ry="2.284215847339766" fill="rgb(0,0,0)"/></g><mask id="_mask_MUgp9MydHM7Cb07dBztqVwvLkmVSAOVM" x="-200%" y="-200%" width="400%" height="400%"><rect x="-200%" y="-200%" width="400%" height="400%" style="fill:white;"/><path d=" M 44.948 123.057 L 50.518 126.554 L 61.14 128.886 L 68.264 129.663 Q 73.446 129.275 74.352 128.886 Q 75.259 128.497 79.922 126.943 L 86.399 124.611 L 89.119 121.503" fill="black" stroke="none"/></mask><path d=" M 44.948 123.057 L 50.518 126.554 L 61.14 128.886 L 68.264 129.663 Q 73.446 129.275 74.352 128.886 Q 75.259 128.497 79.922 126.943 L 86.399 124.611 L 89.119 121.503" fill="none"/><path d=" M 44.948 123.057 L 50.518 126.554 L 61.14 128.886 L 68.264 129.663 Q 73.446 129.275 74.352 128.886 Q 75.259 128.497 79.922 126.943 L 86.399 124.611 L 89.119 121.503" fill="none" mask="url(#_mask_MUgp9MydHM7Cb07dBztqVwvLkmVSAOVM)" vector-effect="non-scaling-stroke" stroke-width="2" stroke="rgb(0,0,0)" stroke-opacity="100" stroke-linejoin="miter" stroke-linecap="square" stroke-miterlimit="3"/></g></g></g>
</svg>