<svg class="security-color" xmlns="http://www.w3.org/2000/svg" xmlns:xlink="http://www.w3.org/1999/xlink" style="isolation:isolate" viewBox="0 0 150 150" width="90pt" height="90pt" aria-labelledby="title-security" role="img">
    <use xlink:href="#security-color"></use>
<defs><clipPath id="_clipPath_b9BPdK8qBvbeNKkPPM0qko6VbIzNyr8O"><rect width="150" height="150"/></clipPath></defs><g clip-path="url(#_clipPath_b9BPdK8qBvbeNKkPPM0qko6VbIzNyr8O)"><g><path d=" M 42 52 C 42 33.235 57.235 18 76 18 C 94.765 18 110 33.235 110 52 C 110 70.765 94.765 86 76 86 C 57.235 86 42 70.765 42 52 Z  M 52 52 C 52 38.754 62.754 28 76 28 C 89.246 28 100 38.754 100 52 C 100 65.246 89.246 76 76 76 C 62.754 76 52 65.246 52 52 Z " fill-rule="evenodd" fill="rgb(129,134,147)"/><path d="M 40.9 52 L 111.1 52 C 116.564 52 121 56.436 121 61.9 L 121 102.1 C 121 107.564 116.564 112 111.1 112 L 40.9 112 C 35.436 112 31 107.564 31 102.1 L 31 61.9 C 31 56.436 35.436 52 40.9 52 Z" style="stroke:none;fill:#D4AF37;stroke-miterlimit:10;"/><path d=" M 78.751 81.514 C 81.813 80.391 84 77.449 84 74 C 84 69.585 80.415 66 76 66 C 71.585 66 68 69.585 68 74 C 68 77.449 70.187 80.391 73.249 81.514 L 69.938 88.75 L 65.956 97.453 C 64.808 99.963 66.116 102 68.876 102 L 76 102 L 83.124 102 C 85.884 102 87.192 99.963 86.044 97.453 L 82.062 88.75 L 78.751 81.514 Z " fill-rule="evenodd" fill="rgb(45,45,45)"/></g></g></svg>
