<svg class="store-gray" xmlns="http://www.w3.org/2000/svg" xmlns:xlink="http://www.w3.org/1999/xlink" style="isolation:isolate" viewBox="0 0 150 150" width="90pt" height="90pt" aria-labelledby="title-store" role="img">
    <use xlink:href="#store-gray"></use>
    <defs><clipPath id="_clipPath_pR8Vd49cz9gWTABTsTxPuQgKIGZPFt0F"><rect width="150" height="150"/></clipPath></defs><g clip-path="url(#_clipPath_pR8Vd49cz9gWTABTsTxPuQgKIGZPFt0F)"><path d=" M 120.188 99.68 L 120.188 99.68 L 120.188 99.68 Q 120.188 117.456 107.164 127.576 L 107.164 127.576 L 107.164 127.576 Q 94.14 137.696 73.9 137.696 L 73.9 137.696 L 73.9 137.696 Q 57.884 137.696 42.924 128.896 L 42.924 128.896 L 42.924 128.896 Q 35.532 124.32 30.78 115.96 L 30.78 115.96 L 30.78 115.96 Q 26.028 107.6 26.028 96.864 L 26.028 96.864 L 48.204 95.808 L 48.204 95.808 Q 48.204 105.312 56.3 110.592 L 56.3 110.592 L 56.3 110.592 Q 64.396 115.872 74.252 115.872 L 74.252 115.872 L 74.252 115.872 Q 96.252 115.872 96.252 100.384 L 96.252 100.384 L 96.252 100.384 Q 96.252 87.712 81.292 85.424 L 81.292 85.424 L 60.876 83.312 L 60.876 83.312 Q 45.564 81.024 36.588 72.4 L 36.588 72.4 L 36.588 72.4 Q 27.612 63.776 27.612 47.584 L 27.612 47.584 L 27.612 47.584 Q 27.612 31.392 40.46 20.832 L 40.46 20.832 L 40.46 20.832 Q 53.308 10.272 72.932 10.272 L 72.932 10.272 L 72.932 10.272 Q 92.556 10.272 104.524 20.216 L 104.524 20.216 L 104.524 20.216 Q 116.492 30.16 116.492 45.824 L 116.492 45.824 L 94.668 46.88 L 94.668 46.88 Q 91.676 31.568 74.076 31.568 L 74.076 31.568 L 74.076 31.568 Q 63.34 31.568 57.268 36.144 L 57.268 36.144 L 57.268 36.144 Q 51.196 40.72 51.196 46.968 L 51.196 46.968 L 51.196 46.968 Q 51.196 53.216 55.596 56.824 L 55.596 56.824 L 55.596 56.824 Q 59.996 60.432 66.508 61.312 L 66.508 61.312 L 86.572 63.424 L 86.572 63.424 Q 120.188 68 120.188 99.68 Z " fill="rgb(195,195,195)"/><path d=" M 68.362 137 L 68.362 137 L 68.362 1.75 L 57.5 1.75 L 57.5 130.75 L 57.5 137 L 57.5 148.25 L 68.362 148.25 L 68.362 137 Z " fill-rule="evenodd" fill="rgb(195,195,195)"/><path d=" M 88 130.75 L 88 1.75 L 77.138 1.75 L 77.138 130.75 L 77.138 137 L 77.138 148.25 L 88 148.25 L 88 137 L 88 130.75 Z " fill-rule="evenodd" fill="rgb(195,195,195)"/></g>
</svg>
