<svg class="wants-gray" xmlns="http://www.w3.org/2000/svg" xmlns:xlink="http://www.w3.org/1999/xlink" style="isolation:isolate" viewBox="0 0 150 150" width="90pt" height="90pt" aria-labelledby="title-wants" role="img">
    <use xlink:href="#wants-gray"></use>
<defs><clipPath id="_clipPath_xzE1NOauDgTzQDHsFoIEnTVMvSrZKxRJ"><rect width="150" height="150"/></clipPath></defs><g clip-path="url(#_clipPath_xzE1NOauDgTzQDHsFoIEnTVMvSrZKxRJ)"><g><path d=" M 62.667 12.5 L 109.125 12.5 C 111.816 12.5 114 14.684 114 17.375 L 114 132.625 C 114 135.316 111.816 137.5 109.125 137.5 L 43.875 137.5 C 41.184 137.5 39 135.316 39 132.625 L 39 36.167 C 39 23.105 49.605 12.5 62.667 12.5 Z " fill="rgb(193,193,193)"/><path d=" M 48 38.5 C 48 34.361 51.361 31 55.5 31 C 59.639 31 63 34.361 63 38.5 C 63 42.639 59.639 46 55.5 46 C 51.361 46 48 42.639 48 38.5 Z  M 69.5 36.5 L 105.5 36.5 C 106.604 36.5 107.5 37.396 107.5 38.5 L 107.5 38.5 C 107.5 39.604 106.604 40.5 105.5 40.5 L 69.5 40.5 C 68.396 40.5 67.5 39.604 67.5 38.5 L 67.5 38.5 C 67.5 37.396 68.396 36.5 69.5 36.5 Z " fill-rule="evenodd" fill="rgb(108,108,108)"/><path d=" M 48 64.5 C 48 60.361 51.361 57 55.5 57 C 59.639 57 63 60.361 63 64.5 C 63 68.639 59.639 72 55.5 72 C 51.361 72 48 68.639 48 64.5 Z  M 69.5 62.5 L 105.5 62.5 C 106.604 62.5 107.5 63.396 107.5 64.5 L 107.5 64.5 C 107.5 65.604 106.604 66.5 105.5 66.5 L 69.5 66.5 C 68.396 66.5 67.5 65.604 67.5 64.5 L 67.5 64.5 C 67.5 63.396 68.396 62.5 69.5 62.5 Z " fill-rule="evenodd" fill="rgb(108,108,108)"/><path d=" M 48 90.5 C 48 86.361 51.361 83 55.5 83 C 59.639 83 63 86.361 63 90.5 C 63 94.639 59.639 98 55.5 98 C 51.361 98 48 94.639 48 90.5 Z  M 69.5 88.5 L 105.5 88.5 C 106.604 88.5 107.5 89.396 107.5 90.5 L 107.5 90.5 C 107.5 91.604 106.604 92.5 105.5 92.5 L 69.5 92.5 C 68.396 92.5 67.5 91.604 67.5 90.5 L 67.5 90.5 C 67.5 89.396 68.396 88.5 69.5 88.5 Z " fill-rule="evenodd" fill="rgb(108,108,108)"/><path d=" M 48 116.5 C 48 112.361 51.361 109 55.5 109 C 59.639 109 63 112.361 63 116.5 C 63 120.639 59.639 124 55.5 124 C 51.361 124 48 120.639 48 116.5 Z  M 69.5 114.5 L 105.5 114.5 C 106.604 114.5 107.5 115.396 107.5 116.5 L 107.5 116.5 C 107.5 117.604 106.604 118.5 105.5 118.5 L 69.5 118.5 C 68.396 118.5 67.5 117.604 67.5 116.5 L 67.5 116.5 C 67.5 115.396 68.396 114.5 69.5 114.5 Z " fill-rule="evenodd" fill="rgb(108,108,108)"/></g></g></svg>
